<?xml version="1.0" standalone="no"?>
<!DOCTYPE svg PUBLIC "-//W3C//DTD SVG 20010904//EN"
 "http://www.w3.org/TR/2001/REC-SVG-20010904/DTD/svg10.dtd">
<svg version="1.0" xmlns="http://www.w3.org/2000/svg"
 width="3000.000000pt" height="3000.000000pt" viewBox="0 0 3000.000000 3000.000000"
 preserveAspectRatio="xMidYMid meet">

<g transform="translate(0.000000,3000.000000) scale(0.100000,-0.100000)"
fill="#000000" stroke="none">
<path d="M1840 20475 l0 -295 540 0 540 0 0 -1375 0 -1375 350 0 350 0 0 1375
0 1375 540 0 540 0 0 295 0 295 -1430 0 -1430 0 0 -295z"/>
<path d="M4902 19103 l3 -1668 333 -3 332 -2 0 667 c0 687 4 778 41 923 59
229 185 353 374 367 83 6 181 -9 235 -37 42 -22 102 -83 124 -128 10 -18 27
-68 39 -110 21 -75 21 -93 25 -879 l3 -803 329 0 330 0 0 848 c0 904 -2 950
-50 1107 -35 112 -84 191 -179 285 -132 132 -293 207 -496 232 -249 30 -511
-67 -707 -264 l-68 -67 0 599 0 600 -335 0 -335 0 2 -1667z"/>
<path d="M8297 19909 c-537 -78 -912 -475 -988 -1046 -17 -129 -6 -422 20
-545 121 -562 499 -897 1072 -949 319 -29 651 47 880 202 90 61 215 192 277
291 49 80 112 218 127 281 l7 27 -351 0 -351 0 -29 -59 c-93 -183 -311 -267
-556 -216 -237 50 -387 224 -420 489 l-7 56 858 2 859 3 3 110 c10 347 -77
675 -240 912 -57 83 -188 211 -268 264 -133 88 -288 147 -453 174 -100 16
-342 18 -440 4z m348 -504 c177 -46 306 -182 350 -367 8 -35 15 -73 15 -85 l0
-23 -515 0 c-590 0 -531 -13 -494 106 61 201 184 329 354 370 71 18 220 17
290 -1z"/>
<path d="M7291 16695 c-8 -10 -64 -169 -376 -1070 -92 -264 -204 -588 -250
-720 -46 -132 -177 -508 -290 -835 -113 -327 -215 -619 -225 -648 -15 -40 -17
-54 -7 -57 6 -3 167 -4 356 -3 l344 3 48 145 c26 80 87 265 134 413 l87 267
629 0 628 0 132 -402 c73 -222 136 -409 142 -415 7 -10 93 -13 368 -13 198 0
359 3 359 8 0 4 -23 72 -51 152 -80 227 -488 1399 -619 1775 -410 1180 -480
1381 -487 1393 -10 16 -910 23 -922 7z m670 -1218 l217 -682 -436 -3 c-239 -1
-437 0 -440 3 -3 3 54 191 127 418 73 226 171 534 219 684 48 149 89 270 91
267 3 -2 102 -311 222 -687z"/>
<path d="M9534 16701 c-2 -2 -4 -755 -4 -1673 l0 -1668 330 0 330 0 -2 1670
-3 1671 -323 2 c-178 1 -326 0 -328 -2z"/>
<path d="M15810 16413 l0 -293 540 0 540 0 2 -1377 3 -1378 348 -3 347 -2 0
1380 0 1380 540 0 540 0 -2 290 -3 290 -1428 3 -1427 2 0 -292z"/>
<path d="M22484 16701 c-2 -2 -4 -145 -4 -318 l0 -313 335 0 335 0 -2 315 -3
316 -328 2 c-181 1 -331 0 -333 -2z"/>
<path d="M11472 15850 c-518 -45 -843 -288 -926 -693 -9 -42 -16 -88 -16 -102
l0 -25 340 0 339 0 6 38 c29 166 104 256 249 298 80 22 242 23 316 1 143 -42
218 -154 242 -358 13 -114 11 -119 -56 -119 -170 -1 -698 -85 -905 -145 -425
-122 -621 -342 -621 -695 0 -206 58 -348 200 -491 74 -75 100 -94 191 -138
170 -83 360 -119 560 -107 327 21 543 134 698 365 l36 54 7 -159 c3 -87 11
-171 17 -186 l11 -28 281 0 281 0 -6 28 c-45 212 -56 401 -56 995 0 552 -7
704 -41 847 -74 318 -352 544 -742 605 -123 19 -291 25 -405 15z m555 -1470
c-25 -344 -181 -550 -449 -591 -248 -39 -449 89 -448 285 1 185 167 274 655
351 88 14 176 30 195 34 19 5 39 9 44 10 5 1 6 -37 3 -89z"/>
<path d="M14230 15834 c-219 -27 -389 -111 -534 -265 l-76 -81 0 146 0 146
-315 0 -315 0 0 -1210 0 -1210 330 0 330 0 0 623 c0 830 10 955 90 1125 39 84
120 163 197 193 83 32 234 32 315 0 66 -26 160 -106 187 -160 45 -88 45 -77
51 -946 l5 -830 330 0 330 0 1 750 c2 949 -6 1088 -65 1246 -80 212 -285 387
-524 448 -75 20 -265 34 -337 25z"/>
<path d="M21840 15824 c-186 -39 -345 -143 -446 -290 l-39 -56 -3 151 -3 151
-314 0 -315 0 0 -1210 0 -1210 333 2 332 3 6 680 c6 715 5 702 55 857 83 254
275 368 599 356 66 -3 128 -9 138 -13 16 -7 17 11 17 283 l0 291 -37 10 c-53
15 -245 12 -323 -5z"/>
<path d="M24666 15829 c-95 -13 -238 -62 -321 -111 -43 -25 -105 -76 -162
-135 l-93 -93 0 145 0 145 -315 0 -315 0 2 -1207 3 -1208 330 0 330 0 5 760
c6 746 6 761 28 840 61 221 166 330 343 358 166 26 343 -53 409 -182 45 -89
44 -77 50 -946 l5 -830 330 0 330 0 0 845 c-1 753 -2 857 -18 957 -32 207 -81
307 -212 438 -75 76 -106 99 -185 138 -52 26 -131 56 -174 67 -94 24 -272 33
-370 19z"/>
<path d="M26705 15826 c-291 -56 -530 -239 -672 -514 -64 -122 -95 -209 -125
-348 -20 -96 -23 -135 -23 -334 1 -211 2 -232 29 -345 83 -355 262 -602 529
-729 110 -52 180 -72 307 -86 177 -20 355 7 499 77 82 39 107 58 193 144 l98
99 0 -155 c0 -279 -30 -437 -105 -549 -43 -64 -92 -103 -169 -135 -82 -33
-259 -42 -356 -17 -133 34 -225 115 -258 228 l-17 58 -328 0 -329 0 7 -42 c36
-237 153 -421 345 -547 101 -67 216 -114 359 -148 86 -20 142 -26 298 -30 215
-6 330 4 474 43 351 94 562 311 661 679 l33 120 3 1243 3 1242 -296 0 -295 0
0 -144 0 -145 -112 113 c-122 121 -189 164 -323 206 -89 28 -322 37 -430 16z
m470 -533 c150 -52 260 -190 316 -398 18 -67 22 -109 23 -255 1 -155 -2 -184
-22 -255 -82 -283 -286 -438 -525 -397 -184 32 -316 173 -379 407 -31 117 -31
384 0 500 63 230 206 385 382 414 64 10 149 4 205 -16z"/>
<path d="M22484 15775 c-2 -5 -3 -550 -2 -1210 l3 -1200 330 0 330 0 0 1208 0
1208 -329 2 c-212 1 -330 -2 -332 -8z"/>
<path d="M18230 14991 c0 -818 6 -982 41 -1120 102 -408 546 -641 1010 -530
162 38 331 142 432 264 l46 57 3 -149 3 -148 315 0 315 0 3 1208 2 1207 -334
0 -335 0 -3 -762 c-4 -749 -4 -764 -26 -841 -28 -102 -64 -167 -128 -231 -201
-201 -546 -147 -646 102 l-23 57 -3 838 -3 837 -334 0 -335 0 0 -789z"/>
<path d="M2340 10970 l0 -1670 330 0 330 0 0 1670 0 1670 -330 0 -330 0 0
-1670z"/>
<path d="M9530 12320 l0 -320 330 0 330 0 0 320 0 320 -330 0 -330 0 0 -320z"/>
<path d="M8210 12015 l0 -295 -180 0 -180 0 0 -250 0 -250 179 0 180 0 4 -707
c4 -795 3 -779 78 -932 85 -173 236 -282 439 -317 109 -19 361 -15 468 7 l62
13 0 248 0 249 -83 -7 c-158 -13 -242 36 -283 164 -16 52 -18 110 -22 670 l-3
612 195 0 196 0 0 250 0 250 -195 0 -195 0 0 295 0 295 -330 0 -330 0 0 -295z"/>
<path d="M10787 12303 c-4 -3 -7 -136 -7 -295 l0 -288 -175 0 -175 0 0 -250 0
-250 175 0 175 0 0 -597 c1 -782 9 -893 80 -1032 85 -170 205 -267 390 -318
84 -23 442 -24 530 -2 l55 14 3 247 2 246 -112 -2 c-100 -1 -118 2 -155 22
-24 12 -54 39 -68 60 -52 79 -55 116 -55 765 l0 597 195 0 195 0 0 250 0 250
-195 0 -195 0 0 295 0 295 -328 0 c-181 0 -332 -3 -335 -7z"/>
<path d="M14887 12303 c-4 -3 -7 -136 -7 -295 l0 -288 -175 0 -175 0 0 -250 0
-250 175 0 175 0 0 -612 c0 -773 8 -872 83 -1022 82 -165 201 -262 387 -313
84 -23 442 -24 530 -2 l55 14 3 247 2 246 -112 -2 c-100 -1 -118 2 -155 22
-24 12 -54 39 -68 60 -52 79 -55 116 -55 765 l0 597 195 0 195 0 0 250 0 250
-195 0 -195 0 0 295 0 295 -328 0 c-181 0 -332 -3 -335 -7z"/>
<path d="M6495 11779 c-238 -31 -441 -116 -582 -244 -311 -282 -293 -779 39
-1030 126 -96 289 -157 598 -226 440 -97 549 -161 550 -322 0 -140 -121 -225
-334 -235 -163 -7 -267 22 -349 98 -56 51 -96 137 -104 224 l-6 66 -339 0
-340 0 7 -72 c40 -436 304 -700 785 -784 146 -26 473 -26 615 0 133 24 259 67
369 124 130 67 257 193 315 312 52 106 71 195 71 331 0 274 -115 458 -371 589
-118 61 -215 93 -474 160 -449 116 -486 129 -543 195 -38 43 -46 69 -40 140 7
79 41 125 125 167 67 33 68 33 213 33 144 0 146 0 213 -33 99 -49 152 -132
164 -257 l6 -65 329 0 329 0 -7 73 c-39 431 -297 679 -779 752 -109 16 -346
18 -460 4z"/>
<path d="M17080 11776 c-403 -73 -684 -275 -850 -611 -102 -205 -140 -382
-140 -644 0 -315 68 -571 211 -791 23 -36 90 -112 148 -170 113 -112 208 -176
342 -231 297 -123 705 -130 1021 -19 240 84 403 214 538 428 51 81 108 206
125 275 l7 27 -351 0 -351 0 -30 -61 c-76 -150 -223 -229 -424 -229 -225 1
-404 104 -491 284 -33 68 -65 193 -65 252 l0 24 854 0 854 0 6 23 c9 34 7 180
-4 302 -38 407 -185 715 -437 916 -128 101 -271 168 -453 210 -111 26 -400 35
-510 15z m332 -497 c208 -43 354 -210 384 -439 l7 -50 -517 0 -516 0 0 21 c0
85 74 249 149 331 110 120 308 175 493 137z"/>
<path d="M4420 11751 c-163 -35 -314 -122 -434 -252 l-66 -71 0 146 0 146
-315 0 -315 0 0 -1210 0 -1210 329 0 330 0 4 738 c3 708 4 741 25 831 41 184
122 304 240 359 52 25 68 27 177 27 112 0 124 -2 179 -29 129 -63 190 -159
206 -322 5 -55 10 -438 10 -851 l0 -753 330 0 330 0 0 818 c0 521 -4 858 -11
927 -24 235 -73 349 -214 491 -125 126 -235 185 -413 220 -101 19 -287 17
-392 -5z"/>
<path d="M9530 10510 l0 -1210 330 0 330 0 0 1200 c0 660 1 1203 3 1208 1 4
-148 8 -330 10 l-333 2 0 -1210z"/>
<path d="M12133 10863 c4 -920 6 -962 57 -1114 75 -223 269 -398 520 -469 103
-29 296 -37 410 -17 182 32 342 117 467 250 40 43 75 77 78 77 3 0 5 -65 5
-145 l0 -145 315 0 315 0 0 1210 0 1210 -335 0 -334 0 -4 -772 c-4 -842 -3
-822 -62 -945 -40 -81 -122 -164 -202 -204 -65 -32 -73 -34 -178 -34 -98 0
-116 3 -166 26 -69 32 -132 88 -165 145 -51 86 -53 134 -54 992 l0 792 -336 0
-335 0 4 -857z"/>
</g>
</svg>
