<?xml version="1.0" standalone="no"?>
<!DOCTYPE svg PUBLIC "-//W3C//DTD SVG 20010904//EN"
 "http://www.w3.org/TR/2001/REC-SVG-20010904/DTD/svg10.dtd">
<svg version="1.0" xmlns="http://www.w3.org/2000/svg"
 width="539.000000pt" height="539.000000pt" viewBox="0 0 539.000000 539.000000"
 preserveAspectRatio="xMidYMid meet">
<metadata>
Created by potrace 1.14, written by Peter Selinger 2001-2017
</metadata>
<g transform="translate(0.000000,539.000000) scale(0.100000,-0.100000)"
fill="#000000" stroke="none">
<path d="M2615 5357 c-114 -38 -199 -124 -225 -230 -7 -24 -17 -44 -23 -44
-71 -1 -334 -65 -467 -113 -251 -91 -567 -270 -725 -411 -77 -69 -71 -67 -134
-46 -147 50 -317 -23 -391 -169 -21 -42 -25 -63 -25 -139 0 -78 4 -97 27 -143
l28 -53 -61 -104 c-64 -109 -154 -301 -188 -400 -30 -86 -71 -225 -77 -260 -3
-16 -9 -46 -14 -65 -5 -19 -12 -55 -15 -80 -4 -25 -9 -52 -10 -60 -2 -8 -4
-18 -4 -22 -1 -4 -20 -12 -43 -19 -99 -26 -168 -82 -215 -172 -23 -45 -27 -64
-28 -142 0 -79 3 -96 28 -144 44 -86 118 -144 213 -170 45 -12 44 -10 60 -116
20 -138 91 -377 159 -535 67 -156 220 -422 286 -496 18 -20 18 -22 -2 -80 -42
-117 -10 -253 77 -338 87 -85 226 -117 337 -78 l58 21 77 -56 c278 -200 638
-350 976 -406 49 -8 82 -19 87 -28 4 -7 17 -37 29 -66 26 -59 88 -126 142
-154 30 -15 59 -19 154 -19 135 0 174 13 236 77 40 42 88 126 88 154 0 11 3
19 8 20 4 0 16 2 27 4 11 2 40 7 65 11 25 4 50 8 55 10 6 1 21 4 35 7 273 54
579 184 835 355 l139 93 40 -18 c55 -25 175 -24 240 1 54 21 124 80 156 131
49 79 59 191 26 286 l-16 46 86 129 c159 240 302 566 348 794 3 14 7 36 11 50
3 14 10 54 16 90 15 95 20 104 71 117 83 22 185 121 208 201 5 20 10 72 10
115 0 63 -5 89 -26 132 -31 66 -108 138 -172 160 -69 25 -77 30 -80 56 -7 57
-46 232 -74 328 -52 184 -150 406 -248 566 -22 36 -40 68 -40 72 0 3 11 29 26
58 76 155 6 354 -152 431 -72 35 -175 41 -245 14 l-49 -18 -77 65 c-96 80
-301 217 -408 273 -198 103 -469 200 -655 233 -14 3 -43 8 -64 12 -22 5 -49 9
-60 10 -12 1 -24 3 -28 4 -5 0 -8 10 -8 22 0 38 -50 127 -96 168 -24 23 -66
51 -92 62 -59 26 -173 34 -227 16z m-185 -489 c0 -4 -148 -81 -330 -172 -181
-91 -441 -222 -577 -291 -136 -69 -253 -123 -260 -121 -7 3 -13 13 -13 22 0
10 -11 37 -25 60 l-25 43 67 56 c267 222 646 401 988 468 133 27 127 27 152
-18 12 -22 22 -43 23 -47z m861 37 c309 -79 600 -226 862 -434 l78 -62 -19
-27 c-11 -15 -26 -46 -34 -68 l-13 -42 -591 296 -591 296 21 43 c11 23 28 44
36 46 20 4 134 -18 251 -48z m269 -442 l595 -299 20 -56 c24 -67 48 -104 89
-141 85 -77 205 -104 312 -71 32 10 62 18 66 19 18 1 131 -209 194 -360 50
-121 89 -246 114 -369 12 -55 25 -117 30 -138 9 -44 6 -49 -49 -73 -80 -36
-155 -133 -176 -227 l-5 -28 -588 0 -588 0 -46 113 c-45 110 -696 1699 -725
1767 -8 19 -23 54 -34 77 l-19 43 28 7 c39 9 110 42 117 53 8 14 -1 18 665
-317z m-996 292 c27 -14 57 -25 67 -25 10 0 20 -4 24 -10 4 -7 -214 -564 -280
-715 -7 -16 -41 -100 -75 -185 -34 -85 -67 -168 -74 -185 -8 -16 -51 -122 -96
-235 -46 -113 -113 -279 -150 -370 -37 -91 -113 -280 -170 -420 -56 -140 -108
-268 -116 -285 -7 -16 -65 -160 -130 -320 -64 -159 -121 -300 -128 -312 -11
-22 -19 -15 -175 141 l-164 164 -2 53 c-2 30 -6 115 -9 189 -4 74 -9 162 -11
195 -3 33 -7 116 -10 185 -3 69 -8 163 -10 210 -3 47 -7 130 -10 185 -3 55 -7
144 -10 198 l-5 98 732 734 c403 403 738 734 743 734 6 1 32 -10 59 -24z
m-294 -88 c0 -1 -281 -283 -625 -627 -487 -486 -625 -619 -624 -600 2 24 -6
192 -17 368 -4 74 -3 82 13 82 31 1 99 37 142 75 50 46 82 95 96 153 l11 44
500 253 c524 266 504 256 504 252z m450 -16 c0 -5 90 -229 201 -497 110 -269
266 -649 345 -844 80 -195 149 -364 155 -375 5 -11 26 -63 48 -115 l39 -95
-231 -3 c-128 -1 -237 0 -244 2 -7 3 -13 16 -13 28 -1 71 -97 191 -183 229
-73 32 -192 33 -260 2 -75 -35 -121 -77 -158 -145 -31 -58 -34 -70 -34 -153 0
-105 20 -157 87 -226 62 -64 136 -94 233 -94 68 0 89 4 138 28 31 16 73 45 92
65 41 43 85 126 85 159 l0 23 262 -2 263 -3 37 -90 c20 -49 43 -106 51 -125 8
-19 65 -159 127 -310 61 -151 116 -284 121 -295 5 -11 24 -57 42 -101 l34 -82
-276 -276 -276 -276 -695 0 -695 0 -268 268 c-147 147 -267 272 -267 278 0 6
22 65 49 130 27 66 119 292 204 504 343 848 660 1631 701 1730 24 58 95 232
157 387 100 247 129 310 129 274z m-1900 -746 c14 -8 35 -14 47 -15 34 0 30
24 49 -320 3 -63 7 -144 9 -180 l3 -65 -190 -191 -190 -192 -54 27 c-53 26
-53 26 -48 66 32 253 173 638 312 848 28 42 28 42 62 22z m118 -723 c-1 -15
10 -251 17 -372 2 -25 6 -106 9 -180 4 -74 9 -164 11 -200 2 -36 7 -123 10
-195 l7 -130 -192 191 -193 192 27 54 c47 96 40 237 -16 317 -17 24 -16 25
145 186 89 89 165 161 169 158 4 -2 6 -11 6 -21z m3821 -579 c6 -21 20 -56 32
-77 l21 -39 -404 -404 -403 -403 -17 37 c-20 44 -378 914 -378 919 0 2 256 4
570 4 l569 0 10 -37z m-3983 -397 c221 -221 224 -225 225 -268 1 -23 2 -61 4
-83 2 -43 13 -241 21 -398 4 -87 3 -98 -13 -103 -15 -4 -94 -35 -128 -50 -12
-5 -133 176 -193 286 -114 212 -216 516 -246 731 l-7 47 53 30 c29 17 55 31
57 31 2 1 105 -100 227 -223z m4167 183 c23 -12 43 -22 44 -23 1 0 -2 -21 -7
-46 -4 -25 -11 -63 -14 -84 -26 -162 -114 -415 -212 -607 -54 -105 -184 -312
-204 -324 -6 -4 -17 -1 -25 5 -8 6 -34 19 -58 28 l-45 17 59 135 c33 74 66
149 73 165 8 17 28 64 46 105 18 41 43 98 55 125 19 43 61 137 110 250 7 17
24 55 37 85 13 30 38 85 53 123 16 37 33 67 38 67 4 0 27 -10 50 -21z m-251
-171 c-11 -23 -100 -225 -197 -448 -98 -223 -182 -408 -189 -412 -6 -4 -19 -8
-30 -8 -10 0 -40 -11 -67 -25 l-50 -24 -22 52 c-13 29 -41 96 -62 149 l-38 97
334 334 c184 184 335 333 337 332 2 -2 -5 -23 -16 -47z m-3441 -487 c76 -76
139 -142 139 -147 0 -12 -101 -267 -110 -277 -3 -4 -28 4 -56 18 -27 14 -57
25 -66 25 -28 0 -24 -25 -44 335 -3 61 -7 127 -8 148 -2 20 -1 37 1 37 2 0 67
-62 144 -139z m639 -645 c0 -3 -110 -6 -245 -6 l-245 0 0 23 c0 21 -29 84 -60
133 -12 20 -8 36 45 163 l58 141 223 -224 c123 -123 224 -226 224 -230z m2164
310 l57 -144 -30 -43 c-16 -24 -34 -63 -40 -86 l-12 -43 -255 0 -255 0 228
229 c125 127 233 230 239 230 6 1 36 -64 68 -143z m-1828 -639 l223 -223 -32
-65 c-18 -35 -32 -65 -33 -66 -1 -5 -243 48 -309 68 -217 64 -441 168 -624
289 l-109 72 29 57 c16 31 29 64 29 74 0 16 21 17 301 17 l301 0 224 -223z
m883 27 l-197 -197 -58 29 c-51 25 -71 29 -144 29 -73 0 -93 -4 -144 -29 l-58
-29 -197 197 -196 196 595 0 595 0 -196 -196z m938 147 c8 -25 21 -55 29 -67
14 -20 12 -23 -38 -61 -131 -97 -348 -213 -519 -277 -101 -37 -294 -92 -357
-102 -21 -3 -57 -10 -81 -15 -24 -5 -45 -8 -46 -7 -1 2 -16 32 -33 66 l-31 64
222 223 222 224 309 -2 308 -2 15 -44z"/>
</g>
</svg>
